<svg width="60" height="38" viewBox="0 0 60 38" fill="none" xmlns="http://www.w3.org/2000/svg">
<path d="M25.1351 26.9189V31.5135C22.7568 33.4595 20.3604 34.9099 17.9459 35.8649C15.5315 36.8198 13.1171 37.2973 10.7027 37.2973C7.45946 37.2973 4.86486 36.3964 2.91892 34.5946C0.972973 32.7928 0 30.3964 0 27.4054C0 24.6306 0.774775 22.3243 2.32432 20.4865C3.72973 18.8288 5.78378 17.5495 8.48649 16.6486C6.46847 15.2793 5.45946 13.3153 5.45946 10.7568C5.45946 8.12612 6.5045 5.74774 8.59459 3.62161C10.9369 1.24324 13.8739 0.0540466 17.4054 0.0540466C19.4595 0.0540466 21.1081 0.621614 22.3513 1.75675C23.5946 2.89188 24.2162 4.37837 24.2162 6.21621C24.2162 7.80179 23.6757 9.2072 22.5946 10.4324C21.5135 11.6577 20.2883 12.2703 18.9189 12.2703C18.7027 12.2703 18.4685 12.027 18.2162 11.5405C17.964 11.054 17.8378 10.5225 17.8378 9.94594C17.8378 9.8018 18.2613 9.39639 19.1081 8.72972C19.955 8.06306 20.3784 7.27927 20.3784 6.37837C20.3784 5.47747 20.0541 4.73873 19.4054 4.16215C18.7568 3.58558 17.9279 3.29729 16.9189 3.29729C15.0811 3.29729 13.4054 4.12612 11.8919 5.78378C10.3784 7.44143 9.62162 9.27927 9.62162 11.2973C9.62162 12.4504 9.93694 13.4324 10.5676 14.2432C11.1982 15.054 12 15.4595 12.973 15.4595H15.4595C16.3964 15.4595 16.991 15.5294 17.2432 15.6693C17.4955 15.8093 17.6216 16.1419 17.6216 16.6672C17.6216 17.8226 17.4595 18.5228 17.1351 18.7677C16.8108 19.0127 16.1622 19.1351 15.1892 19.1351C14.8288 19.1351 14.2703 19.0811 13.5135 18.973C12.7568 18.8649 12.1802 18.8108 11.7838 18.8108C10.4144 18.8108 8.91892 19.5135 7.2973 20.9189C5.27928 22.6486 4.27027 24.7748 4.27027 27.2973C4.27027 29.2072 4.93694 30.7387 6.27027 31.8919C7.6036 33.045 9.40541 33.6216 11.6757 33.6216C16.2523 33.6216 20.7387 31.3874 25.1351 26.9189Z" fill="#FFF7F7"/>
<path d="M31.6754 26.6486L36.7025 6C35.1169 7.00901 33.7655 7.85586 32.6484 8.54054C30.4502 9.90991 29.207 10.5946 28.9187 10.5946C28.7745 10.4865 28.7025 10.3964 28.7025 10.3243C28.7025 10.1081 28.8106 9.64865 29.0268 8.94594C29.243 8.24324 29.4953 7.47748 29.7835 6.64865C31.4772 5.63964 33.0989 4.62162 34.6484 3.59459C36.198 2.56757 37.9097 1.40541 39.7835 0.108108L41.189 0.0540541C41.9097 0.0540541 42.5223 0.162162 43.0268 0.378378L42.4322 2.37838C41.0628 6.99099 39.7115 12.0721 38.3781 17.6216C40.1439 16.3964 41.9998 14.8649 43.9457 13.027C45.243 11.8018 46.9547 10.036 49.0808 7.72973C50.7025 5.92793 52.3421 4.12613 53.9998 2.32432C54.5403 1.67568 55.0538 1.12613 55.5403 0.675676C56.0268 0.225225 56.3962 0 56.6484 0C56.9367 0 57.3421 0.441441 57.8646 1.32432C58.3871 2.20721 58.6484 2.79279 58.6484 3.08108C58.6484 3.54955 57.4953 4.86486 55.189 7.02703C53.279 8.79279 51.0448 10.7568 48.4862 12.9189C47.0448 14.1081 45.6034 15.2973 44.1619 16.4865C45.6034 17.5315 46.5763 18.9369 47.0808 20.7027C47.4772 22.1081 47.6754 24.1081 47.6754 26.7027V28.4865C47.6754 30.2523 47.8286 31.5495 48.1349 32.3784C48.4412 33.2072 49.0989 33.6216 50.1079 33.6216C52.3061 33.6216 55.6034 31.3874 59.9998 26.9189V31.5135C57.4052 33.6757 55.2881 35.1802 53.6484 36.027C52.0088 36.8739 50.3962 37.2973 48.8106 37.2973C46.4322 37.2973 44.8286 36.2162 43.9998 34.0541C43.4592 32.6486 43.189 30.5405 43.189 27.7297V26.0541C43.189 24 43.0628 22.4504 42.8106 21.4054C42.5583 20.3604 42.0718 19.4595 41.3511 18.7027C40.3061 19.5315 39.4953 20.1261 38.9187 20.4865C38.5583 20.7027 38.1079 20.973 37.5673 21.2973L37.0268 23.6216C36.0178 28.1261 35.0448 31.2973 34.1079 33.1351C32.7025 35.9099 30.9007 37.2973 28.7025 37.2973C28.3061 37.2973 27.9547 37.2613 27.6484 37.1892C27.3421 37.1171 26.9908 36.973 26.5944 36.7568L25.7295 32.973L27.4052 33.1351C28.4142 33.1351 29.234 32.6486 29.8646 31.6757C30.4953 30.7027 31.0989 29.027 31.6754 26.6486Z" fill="#FFF7F7"/>
</svg>
